:SAMPLES-PER-SECOND 30
:FULLY-SPECIFIED
:DEGREES
278
root  79.5769 38.347 -1.40218 -179.762 -28.7882 172.753
RightUpLeg  1.6699 -37.1993 -14.1645
RightLeg  38.1506 -12.1401 -10.3247
RightFoot  -10.3451 -0.15947 17.8832
RightToes  -1.33073e-015 0 -3.6325e-017
Spine  5.61091 2.85118 2.4783
Spine1  5.1652 4.7248 -8.34327
HEad  -11.6944 7.62306 -10.4743
LeftShoulder1  -0.422855 4.69083 -29.2944
LeftArm  -10.7359 10.6574 -33.9042
LeftForeArm  13.7577 -18.0878 -4.04106
LeftHand  0.169161 9.16105 6.48736
RightShoulder  -0.93047 -6.01213 30.4597
RightArm  21.3219 -5.41566 38.6226
RightForeArm  14.5097 8.89851 8.86617
RightHand  -0.0462419 4.09233 -0.879439
LeftUpLeg  -8.00377 3.28021 -10.1511
LeftLeg  12.5234 21.119 1.00943
LeftFoot  -3.41462 -0.638932 9.49386
LeftToes  -1.63346e-009 7.54925e-011 9.86887e-012
279
root  79.445 38.3192 -1.66055 -179.385 -32.1606 172.326
RightUpLeg  -3.55603 -32.1367 -13.5261
RightLeg  47.4042 -9.99441 -11.6647
RightFoot  -2.66924 -0.858441 10.9298
RightToes  -1.33073e-015 0 -3.6325e-017
Spine  6.64924 3.234 1.34225
Spine1  3.68515 4.76785 -7.5505
HEad  -10.4587 4.78209 -10.1105
LeftShoulder1  -0.700712 5.40093 -30.8388
LeftArm  -8.1974 11.2133 -34.8549
LeftForeArm  13.6759 -18.023 -4.36813
LeftHand  0.150473 9.6053 5.21325
RightShoulder  -0.743483 -5.57456 29.2741
RightArm  21.4016 -4.11099 40.6118
RightForeArm  15.7544 8.89327 8.94307
RightHand  0.0412188 5.12994 0.136505
LeftUpLeg  -7.31723 2.40229 -10.8777
LeftLeg  12.2405 18.7336 0.898338
LeftFoot  -3.519 -0.624138 9.42429
LeftToes  -1.63346e-009 7.54925e-011 9.86887e-012
280
root  79.2594 38.1765 -1.90799 -179.215 -36.2909 171.261
RightUpLeg  -6.04035 -28.0373 -14.8451
RightLeg  53.4721 -5.20472 -7.84711
RightFoot  0.767257 -0.890464 8.38795
RightToes  -1.33073e-015 0 -3.6325e-017
Spine  7.08004 3.37147 0.501846
Spine1  4.30753 4.84693 -7.97815
HEad  -10.1087 1.59002 -9.27222
LeftShoulder1  -0.627241 5.16469 -31.6042
LeftArm  -5.56534 12.083 -36.1487
LeftForeArm  14.3747 -17.9085 -4.69224
LeftHand  0.0570999 7.65381 4.74571
RightShoulder  -0.83979 -5.8346 29.4121
RightArm  23.582 -1.80398 41.8056
RightForeArm  14.5944 10.3254 9.01111
RightHand  -0.120714 4.11066 -1.73701
LeftUpLeg  -6.55873 2.56176 -11.846
LeftLeg  13.4625 14.848 0.314851
LeftFoot  -4.52966 -0.555038 9.75488
LeftToes  -1.63346e-009 7.54925e-011 9.86887e-012
281
root  79.1362 38.0982 -2.18692 -179.087 -39.7163 170.803
RightUpLeg  -7.88239 -22.5008 -14.8222
RightLeg  56.4279 -0.0485099 -0.551024
RightFoot  -2.58071 -0.84255 10.7181
RightToes  -1.33073e-015 0 -3.6325e-017
Spine  7.60552 3.46265 0.623883
Spine1  4.30322 5.09843 -9.40863
HEad  -9.58826 -1.70445 -9.00429
LeftShoulder1  -0.522246 4.88481 -31.6724
LeftArm  -3.70072 13.2018 -37.4514
LeftForeArm  16.3341 -17.0303 -5.15599
LeftHand  0.0433543 8.20981 3.61674
RightShoulder  -0.911482 -6.00142 29.9116
RightArm  24.8633 0.30501 43.1074
RightForeArm  11.1267 11.559 8.81726
RightHand  -0.144234 4.34147 -1.99994
LeftUpLeg  -6.07366 2.50417 -12.257
LeftLeg  14.5881 11.7093 0.23119
LeftFoot  -5.32071 -0.477351 9.6641
LeftToes  -1.63346e-009 7.54925e-011 9.86887e-012
282
root  79.0347 38.0934 -2.47464 -178.764 -43.2773 170.74
RightUpLeg  -9.66573 -17.2012 -14.0365
RightLeg  57.613 2.43013 3.6631
RightFoot  -3.83257 -0.815826 11.9701
RightToes  -1.33073e-015 0 -3.6325e-017
Spine  8.09535 3.43682 0.221254
Spine1  3.65643 4.9163 -9.48143
HEad  -8.65611 -4.42814 -9.00506
LeftShoulder1  -0.540742 4.91293 -32.2277
LeftArm  -3.60992 14.0991 -38.6551
LeftForeArm  20.9557 -14.6588 -6.02966
LeftHand  0.0202121 8.79214 2.23976
RightShoulder  -0.939801 -6.09011 29.763
RightArm  26.5671 1.72308 44.2946
RightForeArm  7.82326 13.6436 8.10861
RightHand  -0.196749 5.24402 -2.4544
LeftUpLeg  -5.71137 2.04552 -12.4722
LeftLeg  14.978 8.69436 0.393129
LeftFoot  -5.61845 -0.448166 9.62106
LeftToes  -1.63346e-009 7.54925e-011 9.86887e-012
283
root  78.9413 38.1716 -2.82357 -179.039 -46.9494 171.224
RightUpLeg  -10.616 -12.1134 -12.5706
RightLeg  56.9824 1.5328 2.12468
RightFoot  -4.50893 -0.716942 11.4506
RightToes  -1.33073e-015 0 -3.6325e-017
Spine  8.55731 3.26812 0.271668
Spine1  3.11588 4.67732 -9.57429
HEad  -7.74718 -6.75978 -8.50842
LeftShoulder1  -0.588792 5.03156 -32.3896
LeftArm  -3.24718 15.5329 -39.9153
LeftForeArm  26.0446 -12.0958 -7.25388
LeftHand  0.209666 9.82851 6.82996
RightShoulder  -0.947055 -6.11589 29.6856
RightArm  28.7109 2.87227 45.3902
RightForeArm  3.77001 16.1242 7.13843
RightHand  -0.252854 5.58628 -2.9926
LeftUpLeg  -4.82311 2.2904 -11.8036
LeftLeg  14.9112 4.77533 -0.157356
LeftFoot  -5.60983 -0.445163 9.5455
LeftToes  -1.63346e-009 7.54925e-011 9.86887e-012
284
root  78.7942 38.2474 -3.19551 -178.429 -50.8028 171.2
RightUpLeg  -11.8627 -7.06011 -11.3833
RightLeg  55.4763 -0.772507 -1.60608
RightFoot  -5.1922 -0.564692 9.81605
RightToes  -1.33073e-015 0 -3.6325e-017
Spine  8.24432 3.20859 -0.672204
Spine1  2.63959 4.34447 -8.57718
HEad  -7.1074 -9.49586 -8.79049
LeftShoulder1  -0.623787 5.1015 -32.8919
LeftArm  -5.06606 16.6534 -40.5767
LeftForeArm  31.6494 -9.82861 -7.56336
LeftHand  0.123833 10.2698 3.22978
RightShoulder  -0.941332 -6.11049 29.5406
RightArm  29.7916 3.19745 45.8726
RightForeArm  1.10693 19.085 5.82361
RightHand  -0.275078 5.63287 -3.21564
LeftUpLeg  -4.22163 2.4395 -11.2843
LeftLeg  14.4852 0.768114 -1.14216
LeftFoot  -5.67951 -0.449641 9.76184
LeftToes  -1.63346e-009 7.54925e-011 9.86887e-012
285
root  78.6499 38.3183 -3.57174 -178.267 -54.3438 171.326
RightUpLeg  -12.5118 -1.4133 -10.2158
RightLeg  53.0953 -3.08833 -4.78475
RightFoot  -6.05554 -0.420762 8.22003
RightToes  -1.33073e-015 0 -3.6325e-017
Spine  7.98263 3.04273 -0.922206
Spine1  2.81129 4.14838 -8.22544
HEad  -6.7922 -11.1922 -8.3997
LeftShoulder1  -0.632442 5.09792 -33.5163
LeftArm  -6.08367 17.4355 -40.5375
LeftForeArm  34.749 -8.47412 -7.49692
LeftHand  -0.337258 10.1884 -1.73334
RightShoulder  -0.922508 -6.0807 29.2252
RightArm  29.3395 3.68635 46.8424
RightForeArm  0.385968 21.7943 5.00084
RightHand  -0.308105 5.6191 -3.57489
LeftUpLeg  -3.31732 2.85186 -10.4889
LeftLeg  14.0128 -3.0045 -2.13124
LeftFoot  -5.72944 -0.484759 10.5641
LeftToes  -1.63346e-009 7.54925e-011 9.86887e-012
286
root  78.5088 38.3892 -3.94864 -177.716 -57.7627 171.226
RightUpLeg  -13.2488 4.19676 -9.24765
RightLeg  49.7375 -4.46087 -5.97578
RightFoot  -6.59519 -0.334034 6.96573
RightToes  -1.33073e-015 0 -3.6325e-017
Spine  6.80034 2.64411 -0.601513
Spine1  4.38285 4.10299 -8.98292
HEad  -7.25978 -13.5736 -7.78608
LeftShoulder1  -0.638935 5.12953 -33.1461
LeftArm  -6.66759 17.9168 -40.9382
LeftForeArm  38.9633 -7.721 -7.31109
LeftHand  -1.25919 16.1985 -12.1281
RightShoulder  -0.912543 -6.039 29.4106
RightArm  27.0645 4.78533 48.0071
RightForeArm  1.31863 23.8307 5.01341
RightHand  -0.325273 6.45586 -3.513
LeftUpLeg  -2.75669 2.89918 -9.94838
LeftLeg  13.7086 -6.42417 -2.67234
LeftFoot  -5.77633 -0.481977 10.6016
LeftToes  -1.63346e-009 7.54925e-011 9.86887e-012
287
root  78.3746 38.4391 -4.32355 -176.387 -61.2004 170.379
RightUpLeg  -13.9058 9.10288 -8.95403
RightLeg  45.3723 -4.34034 -5.01553
RightFoot  -7.4849 -0.267077 6.42299
RightToes  -1.33073e-015 0 -3.6325e-017
Spine  6.74762 2.59607 -1.40156
Spine1  4.20727 4.00141 -8.58666
HEad  -7.44005 -16.1858 -7.78115
LeftShoulder1  -0.65178 5.13704 -33.7454
LeftArm  -5.99229 18.1978 -39.8933
LeftForeArm  39.1511 -6.68564 -7.77303
LeftHand  -0.189638 11.0625 -3.0877
RightShoulder  -0.972887 -6.1841 29.7387
RightArm  24.8635 4.98889 48.164
RightForeArm  1.87448 25.824 5.44177
RightHand  -0.472227 6.74114 -4.86464
LeftUpLeg  -2.61835 2.85619 -9.64942
LeftLeg  13.8773 -10.0964 -3.38996
LeftFoot  -5.8456 -0.456205 10.2114
LeftToes  -1.63346e-009 7.54925e-011 9.86887e-012
288
root  78.2509 38.4531 -4.71772 -174.441 -64.4966 168.856
RightUpLeg  -14.4694 13.521 -9.0861
RightLeg  40.3273 -2.67429 -2.72242
RightFoot  -8.30635 -0.230265 6.55614
RightToes  -1.33073e-015 0 -3.6325e-017
Spine  6.61208 2.12885 -1.5164
Spine1  4.28931 3.80654 -9.57359
HEad  -7.77555 -18.4833 -7.7685
LeftShoulder1  -0.669183 5.18896 -33.5413
LeftArm  -5.8457 18.7478 -39.3495
LeftForeArm  37.8347 -6.23404 -7.87154
LeftHand  -0.00151837 10.1204 1.29391
RightShoulder  -0.929436 -6.0573 29.8098
RightArm  23.7922 5.57785 49.4601
RightForeArm  2.74881 26.3954 5.52965
RightHand  -0.390923 7.16681 -3.93706
LeftUpLeg  -2.61945 2.76276 -9.53033
LeftLeg  14.2731 -13.2307 -4.01933
LeftFoot  -5.98462 -0.434787 10.0392
LeftToes  -1.63346e-009 7.54925e-011 9.86887e-012
